<svg width="44" height="44" viewBox="0 0 44 44" fill="none" xmlns="http://www.w3.org/2000/svg">
<g clip-path="url(#clip0_236_1132)">
<path fill-rule="evenodd" clip-rule="evenodd" d="M31.992 32.816C32.76 32.224 33.296 31.392 33.528 30.8C33.992 29.608 34 28.256 34 27.4V16.6C34 15.752 34 14.392 33.528 13.2C33.296 12.608 32.752 11.768 31.992 11.184C31.552 10.84 31.024 10.52 30.304 10.304C29.528 10.08 28.584 10 27.4 10H16.6C15.416 10 14.472 10.08 13.696 10.304C12.976 10.52 12.448 10.848 12.008 11.184C11.24 11.776 10.704 12.608 10.472 13.2C10.008 14.392 10 15.744 10 16.6V27.4C10 28.256 10.008 29.608 10.472 30.8C10.704 31.392 11.248 32.232 12.008 32.816C12.448 33.16 12.976 33.48 13.696 33.696C14.472 33.92 15.416 34 16.6 34H27.4C28.584 34 29.536 33.928 30.304 33.696C31.024 33.48 31.552 33.152 31.992 32.816ZM13.56 20.992C13.624 16.4 17.384 12.672 21.976 12.656C26.64 12.648 30.44 16.44 30.456 21.096C30.456 24.776 28.096 27.912 24.808 29.064C24.728 29.096 24.64 29.032 24.656 28.944L24.776 28.08C24.784 27.976 24.848 27.888 24.944 27.848C27.544 26.704 29.368 24.112 29.368 21.096C29.368 17.016 26.032 13.704 21.944 13.736C17.952 13.768 14.688 17.024 14.648 21.024C14.616 24.072 16.448 26.704 19.072 27.848C19.16 27.896 19.224 27.976 19.24 28.08C19.2613 28.272 19.2898 28.4641 19.3182 28.656C19.3324 28.752 19.3467 28.848 19.36 28.944C19.368 29.024 19.288 29.096 19.208 29.064C15.888 27.896 13.512 24.712 13.56 20.992ZM23.968 20.408C23.968 21.496 23.088 22.376 22 22.376C20.912 22.376 20.032 21.496 20.032 20.408C20.032 19.32 20.912 18.44 22 18.44C23.088 18.44 23.968 19.328 23.968 20.408ZM23.736 23.8C23.928 23.992 24.024 24.2 24.056 24.488C24.12 25.048 24.088 25.528 24.016 26.304C23.952 27.04 23.832 28.016 23.68 29.016C23.568 29.728 23.48 30.112 23.4 30.384C23.272 30.824 22.776 31.216 22 31.216C21.224 31.216 20.736 30.832 20.6 30.384C20.52 30.112 20.432 29.728 20.32 29.016C20.168 28.024 20.048 27.04 19.984 26.304L19.9833 26.2954C19.9197 25.5244 19.8802 25.0459 19.944 24.488C19.976 24.2 20.08 24 20.264 23.8C20.624 23.416 21.256 23.176 22 23.176C22.744 23.176 23.376 23.424 23.736 23.8ZM21.784 15.456C18.792 15.568 16.392 18.04 16.352 21.032C16.328 23 17.312 24.744 18.824 25.776C18.896 25.824 19 25.768 19 25.68C18.976 25.336 18.976 25.032 18.992 24.712C19 24.608 18.96 24.512 18.88 24.44C17.96 23.576 17.4 22.344 17.432 20.984C17.496 18.584 19.424 16.632 21.824 16.536C24.432 16.432 26.576 18.528 26.576 21.104C26.576 22.416 26.016 23.6 25.128 24.44C25.056 24.512 25.016 24.608 25.016 24.712C25.032 25.024 25.024 25.328 25.008 25.672C25 25.76 25.104 25.824 25.184 25.768C26.672 24.752 27.656 23.032 27.656 21.096C27.664 17.912 25 15.328 21.784 15.456Z" fill="#0027D5"/>
</g>
<defs>
<clipPath id="clip0_236_1132">
<rect width="24" height="24" fill="white" transform="translate(10 10)"/>
</clipPath>
</defs>
</svg>
